<svg xmlns="http://www.w3.org/2000/svg" viewBox="0 0 1119.93 124.88"><defs><style>.cls-1{fill:#fff;}</style></defs><title>Gateway_Prim_Wht</title><g id="Layer_2" data-name="Layer 2"><g id="Layer_1-2" data-name="Layer 1"><path class="cls-1" d="M665.79,0c22,0,33.75,11.07,33.75,11.07l-5,7a46.68,46.68,0,0,0-28.35-9.45c-23,0-38.48,17.69-38.48,40.23,0,23.36,16.07,40.64,37.67,40.64,18.5,0,29.84-13.91,29.84-13.91V59.54H679V51.17h25.11V96.53h-8.64V89.38c0-2,.13-4.05.13-4.05h-.27a42.44,42.44,0,0,1-30.92,12.83C638.52,98.15,618,77.23,618,49,618,21.6,638.52,0,665.79,0Z"/><path class="cls-1" d="M758.15,54.54h3.78V52.79c0-13.1-7.16-17.55-16.88-17.55a33.07,33.07,0,0,0-19.17,6.48l-4.32-7s8.91-7.7,24.17-7.7c16.34,0,25.38,9,25.38,26.06V96.53h-8.78V89.11a53.77,53.77,0,0,1,.27-5.67h-.27s-5.67,14.72-22.68,14.72c-11.34,0-23.09-6.62-23.09-20.12C716.57,55.08,746.41,54.54,758.15,54.54Zm-17,35.78c13,0,20.79-13.5,20.79-25.25v-3H758c-10.67,0-32,.41-32,15.39C726,83.84,731,90.32,741.14,90.32Z"/><path class="cls-1" d="M789.64,37.13h-8.91v-7.7h9V9.86h9V29.43h17v7.7h-17V70.88c0,15.93,10.13,18,15.26,18a15.73,15.73,0,0,0,3.11-.27V96.8a24.21,24.21,0,0,1-3.92.27c-7.83,0-23.63-2.57-23.63-25.25Z"/><path class="cls-1" d="M854.38,27c18.77,0,28.35,14.45,28.35,31.32,0,1.62-.27,4.73-.27,4.73H830.34c.4,17.42,12.29,26.87,26.33,26.87a31.57,31.57,0,0,0,20.66-8.24l4.18,7a38.92,38.92,0,0,1-25.11,9.45c-20.25,0-35.51-14.58-35.51-35.51C820.89,40.37,836,27,854.38,27Zm19,28.49c-.54-14.18-9.18-20.79-19.31-20.79-11.34,0-21.2,7.16-23.36,20.79Z"/><path class="cls-1" d="M887,28.62h9.72l16.47,50.63c1.08,3.24,2,7.29,2,7.29h.27s.95-4,2-7.29l16.74-50.36h9L960,79.25c1.08,3.24,2,7.29,2,7.29h.27s.95-3.92,2-7.29l16.47-50.63h9.72l-23,67.91h-10L941,48.2c-1.21-3.38-2.16-7.29-2.16-7.29h-.27s-.94,3.92-2,7.29L919.92,96.53h-10Z"/><path class="cls-1" d="M1036.46,54.54h3.78V52.79c0-13.1-7.16-17.55-16.88-17.55a33.07,33.07,0,0,0-19.17,6.48l-4.32-7S1008.78,27,1024,27c16.34,0,25.38,9,25.38,26.06V96.53h-8.78V89.11a53.77,53.77,0,0,1,.27-5.67h-.27S1035,98.15,1018,98.15c-11.34,0-23.09-6.62-23.09-20.12C994.87,55.08,1024.71,54.54,1036.46,54.54Zm-17,35.78c13,0,20.79-13.5,20.79-25.25v-3h-3.92c-10.67,0-32,.41-32,15.39C1004.32,83.84,1009.32,90.32,1019.44,90.32Z"/><path class="cls-1" d="M1058.5,113.54s3.78,3.11,8.1,3.11c5.94,0,10.13-4.86,12.83-11.07l4.19-9.59-28.35-67.37h10.13l20,49.55c1.35,3.38,2.43,7.16,2.43,7.16h.27a64.24,64.24,0,0,1,2.3-7.16l19.58-49.55h10l-33.48,82.09c-3.51,8.64-10.53,14.18-19.58,14.18a20.11,20.11,0,0,1-11.88-4.05Z"/><path class="cls-1" d="M51.08,46.37c6.64-4.17,10.55-11.52,10.55-20,0-15-11-24.74-28-24.74H0V96.78H34.38c18.8,0,30.94-10.8,30.94-27.51,0-10.69-5.53-19.47-14.24-22.9M15,14.9H33.32c8.16,0,13,4.77,13,12.77S41.22,40.83,33.59,40.83H15Zm20,68.6H15V53.6h19.9c9.2,0,15.15,5.9,15.15,15S44.3,83.49,35,83.49"/><polygon class="cls-1" points="95.33 1.61 80.33 1.61 80.33 96.78 137.07 96.78 137.07 83.5 95.33 83.5 95.33 1.61"/><path class="cls-1" d="M205.52,62.53c0,13.7-8.53,21.89-22.81,21.89-14.12,0-22.54-8.08-22.54-21.62V1.61h-15V62.8c0,21.27,15.14,35.57,37.68,35.57s37.68-14.29,37.68-35.57V1.61h-15Z"/><polygon class="cls-1" points="250.54 55.45 283.95 55.45 283.95 42.16 250.54 42.16 250.54 14.9 291.61 14.9 291.61 1.61 235.53 1.61 235.53 96.78 293.86 96.78 293.86 83.5 250.54 83.5 250.54 55.45"/><path class="cls-1" d="M436.87,2.24l-.23-.64H421.54L387.3,96.79h15.54L412.09,70h33.75l9.38,26.81h15.67Zm-20.68,55,10-28.31c1-2.89,2.13-7.15,2.89-10.07.73,2.9,1.84,7.15,2.81,10.08l9.85,28.3Z"/><polygon class="cls-1" points="464.31 14.9 496.28 14.9 496.28 96.78 511.28 96.78 511.28 14.9 543.24 14.9 543.24 1.61 464.31 1.61 464.31 14.9"/><path class="cls-1" d="M348.45,84.42c-19.17,0-33.64-15.42-33.64-35.88,0-20.1,14.09-34.7,33.51-34.7a41.54,41.54,0,0,1,23.05,7.43l8.76-10.73C375.71,7,364.93,0,347.79,0c-27.58,0-48.38,20.91-48.38,48.65,0,28.33,20.92,49.7,48.65,49.7a51.67,51.67,0,0,0,34.55-12.78L373.2,75.52c-4.49,3.51-13.25,8.9-24.75,8.9"/><path class="cls-1" d="M583.46,14.89h-1.93L580.78,6c0-.08,0-.16,0-.24l-3.1,6.75h-1.55L573,5.71c0,.08,0,.16,0,.24l-.75,8.94h-2l1.06-13.28h1.77l3.45,7.53a6.06,6.06,0,0,1,.31.82,6.25,6.25,0,0,1,.31-.82l3.45-7.53h1.77Z"/><polygon class="cls-1" points="564.89 14.89 562.9 14.89 562.9 3.45 558.28 3.45 558.28 1.61 569.54 1.61 569.54 3.45 564.89 3.45 564.89 14.89"/></g></g></svg>