<?xml version="1.0" encoding="UTF-8"?>
<svg width="342px" height="302px" viewBox="0 0 342 302" version="1.1" xmlns="http://www.w3.org/2000/svg" xmlns:xlink="http://www.w3.org/1999/xlink">
    <title>logo</title>
    <g id="Page-1" stroke="none" stroke-width="1" fill="none" fill-rule="evenodd" opacity="1">
        <g id="Workflow-Permissions---Start-Screen---Nav-bar-closed-Copy-4" transform="translate(-315.000000, -290.000000)" fill="#003A6D">
            <path d="M485.999314,548 C436.099393,548 394.042964,513.804092 382,467.607717 C428.194183,464.59491 474.421282,453.557555 474.421282,453.557555 C474.421282,453.557555 432.108386,423.994729 384.533123,405.135874 C399.186014,363.187064 439.11802,333 485.999314,333 C532.858665,333 572.805758,363.187064 587.460019,405.135874 C539.890242,423.994729 497.563632,453.557555 497.563632,453.557555 C497.563632,453.557555 543.79896,464.604514 590,467.607717 C577.955664,513.804092 535.892378,548 485.999314,548 M657,298.745126 C657,298.745126 621.482826,316.713209 595.310904,337.040238 C567.789829,308.098525 528.980063,290 486.003431,290 C443.0268,290 404.218406,308.098525 376.695958,337.040238 C350.524037,316.713209 315,298.745126 315,298.745126 C315,298.745126 323.321378,351.272178 340.229024,401.886535 C336.873298,414.374668 335.060245,427.47794 335.060245,441.002746 C335.060245,524.266122 402.773179,592 486.003431,592 C569.219959,592 636.945245,524.266122 636.945245,441.002746 C636.945245,427.47794 635.126702,414.381533 631.777838,401.8934 C648.685484,351.272178 657,298.745126 657,298.745126" id="logo"></path>
        </g>
    </g>
</svg>